<svg width="26" height="25" viewBox="0 0 26 25" fill="none" xmlns="http://www.w3.org/2000/svg">
<path d="M24.132 11.105H5.15283L9.66334 6.51944C9.92072 6.25699 10.0653 5.90102 10.0653 5.52986C10.0653 5.15869 9.92072 4.80273 9.66334 4.54027C9.40597 4.27782 9.05689 4.13037 8.6929 4.13037C8.32891 4.13037 7.97983 4.27782 7.72246 4.54027L0.888342 11.5092C0.763906 11.6417 0.666363 11.798 0.601309 11.9691C0.464603 12.3085 0.464603 12.6891 0.601309 13.0284C0.666363 13.1995 0.763906 13.3558 0.888342 13.4884L7.72246 20.4573C7.84952 20.5879 8.00069 20.6916 8.16725 20.7624C8.33381 20.8331 8.51246 20.8696 8.6929 20.8696C8.87334 20.8696 9.05199 20.8331 9.21855 20.7624C9.38511 20.6916 9.53628 20.5879 9.66334 20.4573C9.79145 20.3277 9.89314 20.1735 9.96253 20.0037C10.0319 19.8339 10.0676 19.6517 10.0676 19.4677C10.0676 19.2837 10.0319 19.1015 9.96253 18.9317C9.89314 18.7618 9.79145 18.6077 9.66334 18.4781L5.15283 13.8926H24.132C24.4945 13.8926 24.8421 13.7457 25.0984 13.4843C25.3548 13.2229 25.4988 12.8684 25.4988 12.4988C25.4988 12.1291 25.3548 11.7746 25.0984 11.5132C24.8421 11.2518 24.4945 11.105 24.132 11.105Z" fill="#A599CA"/>
</svg>
