<svg width="26" height="25" viewBox="0 0 26 25" fill="none" xmlns="http://www.w3.org/2000/svg">
<path d="M15.2016 12.4987L25.0393 2.67661C25.3333 2.38257 25.4985 1.98376 25.4985 1.56792C25.4985 1.15208 25.3333 0.753277 25.0393 0.459234C24.7453 0.165192 24.3465 0 23.9306 0C23.5148 0 23.116 0.165192 22.8219 0.459234L12.9999 10.2969L3.17781 0.459234C2.88377 0.165192 2.48496 3.69201e-07 2.06912 3.72299e-07C1.65328 3.75397e-07 1.25448 0.165192 0.960434 0.459234C0.666392 0.753277 0.5012 1.15208 0.5012 1.56792C0.5012 1.98376 0.666392 2.38257 0.960434 2.67661L10.7981 12.4987L0.960434 22.3207C0.814074 22.4659 0.697905 22.6386 0.618628 22.8289C0.539351 23.0192 0.498535 23.2233 0.498535 23.4294C0.498535 23.6356 0.539351 23.8397 0.618628 24.0299C0.697905 24.2202 0.814074 24.3929 0.960434 24.5381C1.1056 24.6845 1.27831 24.8006 1.46859 24.8799C1.65888 24.9592 1.86298 25 2.06912 25C2.27527 25 2.47937 24.9592 2.66965 24.8799C2.85994 24.8006 3.03265 24.6845 3.17781 24.5381L12.9999 14.7004L22.8219 24.5381C22.9671 24.6845 23.1398 24.8006 23.3301 24.8799C23.5204 24.9592 23.7245 25 23.9306 25C24.1368 25 24.3409 24.9592 24.5311 24.8799C24.7214 24.8006 24.8941 24.6845 25.0393 24.5381C25.1857 24.3929 25.3018 24.2202 25.3811 24.0299C25.4604 23.8397 25.5012 23.6356 25.5012 23.4294C25.5012 23.2233 25.4604 23.0192 25.3811 22.8289C25.3018 22.6386 25.1857 22.4659 25.0393 22.3207L15.2016 12.4987Z" fill="#A599CA"/>
</svg>
