<svg width="26" height="25" viewBox="0 0 26 25" fill="none" xmlns="http://www.w3.org/2000/svg">
<path d="M25.4012 0.775C25.2744 0.469563 25.0317 0.226844 24.7262 0.0999999C24.5759 0.0359487 24.4146 0.00197498 24.2512 0H16.7512C16.4197 0 16.1018 0.131696 15.8673 0.366116C15.6329 0.600537 15.5012 0.918479 15.5012 1.25C15.5012 1.58152 15.6329 1.89946 15.8673 2.13388C16.1018 2.3683 16.4197 2.5 16.7512 2.5H21.2387L3.00122 20.7375V16.25C3.00122 15.9185 2.86952 15.6005 2.6351 15.3661C2.40068 15.1317 2.08274 15 1.75122 15C1.4197 15 1.10176 15.1317 0.867337 15.3661C0.632917 15.6005 0.501221 15.9185 0.501221 16.25V23.75C0.503196 23.9133 0.537169 24.0747 0.601221 24.225C0.728064 24.5304 0.970784 24.7732 1.27622 24.9C1.4265 24.9641 1.58787 24.998 1.75122 25H9.25122C9.58274 25 9.90068 24.8683 10.1351 24.6339C10.3695 24.3995 10.5012 24.0815 10.5012 23.75C10.5012 23.4185 10.3695 23.1005 10.1351 22.8661C9.90068 22.6317 9.58274 22.5 9.25122 22.5H4.76372L23.0012 4.2625V8.75C23.0012 9.08152 23.1329 9.39946 23.3673 9.63388C23.6018 9.8683 23.9197 10 24.2512 10C24.5827 10 24.9007 9.8683 25.1351 9.63388C25.3695 9.39946 25.5012 9.08152 25.5012 8.75V1.25C25.4992 1.08665 25.4653 0.925278 25.4012 0.775Z" fill="#A599CA"/>
</svg>
