<svg width="26" height="25" viewBox="0 0 26 25" fill="none" xmlns="http://www.w3.org/2000/svg">
<path d="M1.8656 11.105H20.8447L16.3342 6.51944C16.0768 6.25699 15.9322 5.90102 15.9322 5.52986C15.9322 5.15869 16.0768 4.80273 16.3342 4.54027C16.5916 4.27782 16.9407 4.13037 17.3047 4.13037C17.6686 4.13037 18.0177 4.27782 18.2751 4.54027L25.1092 11.5092C25.2337 11.6417 25.3312 11.798 25.3962 11.9691C25.533 12.3085 25.533 12.6891 25.3962 13.0284C25.3312 13.1995 25.2337 13.3558 25.1092 13.4884L18.2751 20.4573C18.148 20.5879 17.9969 20.6916 17.8303 20.7624C17.6637 20.8331 17.4851 20.8696 17.3047 20.8696C17.1242 20.8696 16.9456 20.8331 16.779 20.7624C16.6125 20.6916 16.4613 20.5879 16.3342 20.4573C16.2061 20.3277 16.1044 20.1735 16.035 20.0037C15.9656 19.8339 15.9299 19.6517 15.9299 19.4677C15.9299 19.2837 15.9656 19.1015 16.035 18.9317C16.1044 18.7618 16.2061 18.6077 16.3342 18.4781L20.8447 13.8926H1.8656C1.5031 13.8926 1.15544 13.7457 0.899111 13.4843C0.642782 13.2229 0.498779 12.8684 0.498779 12.4988C0.498779 12.1291 0.642782 11.7746 0.899111 11.5132C1.15544 11.2518 1.5031 11.105 1.8656 11.105Z" fill="#A599CA"/>
</svg>
