<svg width="26" height="25" viewBox="0 0 26 25" fill="none" xmlns="http://www.w3.org/2000/svg">
<path d="M24.2488 11.2518C23.9173 11.2518 23.5993 11.3835 23.3649 11.6179C23.1305 11.8524 22.9988 12.1703 22.9988 12.5018C23.0137 14.8431 22.2116 17.1163 20.7308 18.9299C19.2501 20.7435 17.1832 21.9839 14.8862 22.4376C12.5893 22.8912 10.206 22.5297 8.14691 21.4153C6.08781 20.3008 4.48179 18.5033 3.60544 16.3321C2.72908 14.161 2.63727 11.7522 3.34581 9.52066C4.05434 7.28911 5.51887 5.37449 7.48716 4.10655C9.45545 2.83861 11.8043 2.29672 14.1291 2.57422C16.4539 2.85171 18.6092 3.93122 20.2238 5.62682H17.2238C16.8923 5.62682 16.5743 5.75852 16.3399 5.99294C16.1055 6.22736 15.9738 6.5453 15.9738 6.87682C15.9738 7.20834 16.1055 7.52628 16.3399 7.7607C16.5743 7.99512 16.8923 8.12682 17.2238 8.12682H22.8863C23.2178 8.12682 23.5357 7.99512 23.7702 7.7607C24.0046 7.52628 24.1363 7.20834 24.1363 6.87682V1.25183C24.1363 0.920309 24.0046 0.602367 23.7702 0.367947C23.5357 0.133526 23.2178 0.00183068 22.8863 0.00183068C22.5548 0.00183068 22.2368 0.133526 22.0024 0.367947C21.768 0.602367 21.6363 0.920309 21.6363 1.25183V3.46433C19.5546 1.4744 16.8497 0.264271 13.9788 0.038492C11.1079 -0.187287 8.24707 0.585136 5.87993 2.22519C3.5128 3.86525 1.78454 6.27233 0.987318 9.03956C0.190093 11.8068 0.372796 14.7644 1.50454 17.4125C2.63629 20.0605 4.64766 22.2366 7.19865 23.5729C9.74965 24.9091 12.6838 25.3235 15.5051 24.7461C18.3264 24.1687 20.8618 22.6349 22.6827 20.4039C24.5036 18.1729 25.4984 15.3816 25.4988 12.5018C25.4988 12.1703 25.3671 11.8524 25.1327 11.6179C24.8982 11.3835 24.5803 11.2518 24.2488 11.2518Z" fill="#A599CA"/>
</svg>
