<svg width="27" height="27" viewBox="0 0 27 27" fill="none" xmlns="http://www.w3.org/2000/svg">
<rect x="0.499023" y="0.5" width="26" height="26" rx="7" fill="#EAEAEA"/>
<path d="M17.1456 11.3129V9.85461C17.1456 8.88773 16.7615 7.96045 16.0778 7.27676C15.3942 6.59308 14.4669 6.20898 13.5 6.20898C12.5331 6.20898 11.6058 6.59308 10.9222 7.27676C10.2385 7.96045 9.85437 8.88773 9.85437 9.85461V11.3129C9.27424 11.3129 8.71787 11.5433 8.30766 11.9535C7.89745 12.3637 7.66699 12.9201 7.66699 13.5002V18.6041C7.66699 19.1843 7.89745 19.7406 8.30766 20.1508C8.71787 20.561 9.27424 20.7915 9.85437 20.7915H17.1456C17.7258 20.7915 18.2821 20.561 18.6923 20.1508C19.1026 19.7406 19.333 19.1843 19.333 18.6041V13.5002C19.333 12.9201 19.1026 12.3637 18.6923 11.9535C18.2821 11.5433 17.7258 11.3129 17.1456 11.3129ZM11.3126 9.85461C11.3126 9.27449 11.5431 8.71812 11.9533 8.3079C12.3635 7.89769 12.9199 7.66724 13.5 7.66724C14.0801 7.66724 14.6365 7.89769 15.0467 8.3079C15.4569 8.71812 15.6874 9.27449 15.6874 9.85461V11.3129H11.3126V9.85461ZM17.8748 18.6041C17.8748 18.7975 17.7979 18.983 17.6612 19.1197C17.5245 19.2564 17.339 19.3333 17.1456 19.3333H9.85437C9.66099 19.3333 9.47554 19.2564 9.3388 19.1197C9.20206 18.983 9.12524 18.7975 9.12524 18.6041V13.5002C9.12524 13.3069 9.20206 13.1214 9.3388 12.9847C9.47554 12.8479 9.66099 12.7711 9.85437 12.7711H17.1456C17.339 12.7711 17.5245 12.8479 17.6612 12.9847C17.7979 13.1214 17.8748 13.3069 17.8748 13.5002V18.6041Z" fill="#A599CA"/>
</svg>
