<?xml version="1.0" standalone="no"?>
<!DOCTYPE svg PUBLIC "-//W3C//DTD SVG 20010904//EN"
 "http://www.w3.org/TR/2001/REC-SVG-20010904/DTD/svg10.dtd">
<svg version="1.0" xmlns="http://www.w3.org/2000/svg"
 width="700.000000pt" height="700.000000pt" viewBox="0 0 700.000000 700.000000"
 preserveAspectRatio="xMidYMid meet">
<metadata>
Created by potrace 1.14, written by Peter Selinger 2001-2017
</metadata>
<g transform="translate(0.000000,700.000000) scale(0.100000,-0.100000)"
fill="#000000" stroke="none">
<path d="M2340 6780 c-67 -18 -134 -75 -145 -123 -17 -75 -5 -150 31 -187 55
-57 184 -227 190 -250 0 -3 6 -18 13 -35 22 -52 39 -109 46 -150 14 -88 23
-1753 10 -1776 -5 -8 -74 -112 -154 -232 -80 -119 -153 -228 -161 -241 -20
-33 -379 -567 -393 -586 -7 -9 -142 -211 -302 -450 -159 -239 -296 -441 -303
-448 -6 -7 -12 -17 -12 -22 0 -5 -6 -15 -13 -22 -12 -13 -285 -421 -329 -493
-94 -152 -150 -286 -223 -530 -14 -49 -30 -100 -35 -112 -10 -24 -8 -326 2
-358 38 -123 89 -224 163 -324 29 -39 166 -171 208 -200 75 -51 205 -109 298
-131 83 -20 111 -20 2249 -20 1406 0 2183 3 2218 10 111 21 171 40 275 89 162
75 322 234 394 391 87 189 98 404 33 644 -56 207 -140 371 -309 601 -56 76
-230 336 -281 420 -8 13 -118 183 -245 377 -126 193 -232 357 -234 362 -2 6
-7 13 -10 16 -7 6 -17 21 -173 260 -283 434 -343 525 -350 528 -5 2 -8 8 -8
13 0 5 -40 69 -90 143 -49 74 -90 139 -90 145 0 5 -3 11 -8 13 -18 7 -102 150
-107 180 -2 18 -7 155 -11 303 -8 365 -20 760 -29 1015 -9 217 -6 398 5 445 7
28 14 57 15 65 11 71 96 214 181 305 25 28 54 68 65 90 47 100 2 219 -97 261
-36 16 -134 17 -1149 19 -610 1 -1121 -1 -1135 -5z m1804 -401 c4 -4 -4 -37
-17 -75 -35 -100 -48 -141 -53 -169 -2 -14 -6 -37 -9 -52 -13 -70 -19 -147
-19 -255 l0 -118 -53 0 c-227 0 -391 -9 -423 -23 -155 -68 -159 -282 -6 -358
37 -19 62 -21 264 -24 123 -2 226 -6 230 -9 3 -4 7 -84 8 -179 2 -94 5 -236 8
-314 l4 -143 -41 0 c-366 -3 -402 -6 -451 -29 -154 -75 -139 -300 24 -354 33
-11 99 -15 254 -16 115 -1 213 -4 217 -7 5 -3 8 -15 7 -27 -4 -51 27 -116 123
-262 70 -108 182 -278 324 -498 202 -308 455 -693 465 -704 5 -7 10 -14 10
-17 0 -3 53 -85 118 -183 65 -98 177 -268 250 -378 72 -110 136 -207 142 -215
6 -8 88 -132 182 -275 222 -336 314 -520 324 -644 3 -29 8 -61 12 -70 22 -45
-18 -202 -75 -293 -52 -84 -216 -179 -333 -193 -127 -15 -856 -18 -2500 -11
-509 2 -1115 5 -1346 6 l-422 1 -80 28 c-127 45 -196 101 -248 203 -38 75 -55
154 -55 263 0 192 54 365 171 545 27 41 58 91 69 111 16 30 111 169 139 204 4
6 35 52 67 103 33 51 91 137 128 190 38 53 86 126 107 162 22 36 54 86 72 113
72 104 228 335 263 392 21 33 99 151 174 263 75 112 169 254 209 315 40 61 79
119 87 128 8 8 15 19 15 23 0 4 5 12 11 19 6 7 57 84 114 172 58 88 114 174
125 190 12 17 54 80 93 140 l72 110 -3 645 c-4 966 -9 1194 -26 1290 -13 69
-55 215 -70 245 -13 26 -14 31 -1 35 21 7 1342 6 1349 -1z"/>
<path d="M4103 3263 c-28 -13 -82 -51 -120 -84 -112 -98 -270 -201 -479 -311
-183 -96 -382 -130 -599 -104 -88 11 -92 12 -317 87 -199 68 -207 70 -240 56
-28 -12 -66 -59 -193 -238 -157 -222 -423 -596 -451 -634 -165 -228 -241 -340
-273 -403 -127 -252 -163 -418 -125 -578 19 -84 92 -212 159 -279 67 -68 122
-102 222 -136 l68 -24 1730 -1 1730 -1 67 23 c162 54 269 125 325 212 59 92
75 149 79 298 4 117 2 140 -21 218 -33 113 -64 173 -174 331 -49 72 -186 271
-303 443 -192 282 -403 585 -531 762 -26 36 -53 74 -61 85 -18 26 -140 193
-163 224 -10 13 -20 27 -23 31 -3 5 -32 17 -65 28 -85 28 -175 26 -242 -5z"/>
</g>
</svg>
