<svg width="395" height="74" viewBox="0 0 395 74" fill="none" xmlns="http://www.w3.org/2000/svg">
<path d="M4.43457 10.0005V6.00146H0.435547V4.00195H4.43457V0.00292969H6.43408V4.00195H10.4331V6.00146H6.43408V10.0005H4.43457ZM12.4395 6.00146V4.00195H22.437V6.00146H12.4395ZM24.4434 6.00146V4.00195H34.4409V6.00146H24.4434ZM36.4473 6.00146V4.00195H46.4448V6.00146H36.4473ZM48.4512 6.00146V4.00195H58.4487V6.00146H48.4512ZM60.4551 6.00146V4.00195H70.4526V6.00146H60.4551ZM72.459 6.00146V4.00195H82.4565V6.00146H72.459ZM84.4629 6.00146V4.00195H94.4604V6.00146H84.4629ZM96.4668 6.00146V4.00195H106.464V6.00146H96.4668ZM108.471 6.00146V4.00195H118.468V6.00146H108.471ZM120.475 6.00146V4.00195H130.472V6.00146H120.475ZM132.479 6.00146V4.00195H142.476V6.00146H132.479ZM144.482 6.00146V4.00195H154.48V6.00146H144.482ZM156.486 6.00146V4.00195H166.484V6.00146H156.486ZM168.49 6.00146V4.00195H178.488V6.00146H168.49ZM180.494 6.00146V4.00195H190.492V6.00146H180.494ZM192.498 6.00146V4.00195H202.496V6.00146H192.498ZM204.502 6.00146V4.00195H214.5V6.00146H204.502ZM216.506 6.00146V4.00195H226.503V6.00146H216.506ZM228.51 6.00146V4.00195H238.507V6.00146H228.51ZM240.514 6.00146V4.00195H250.511V6.00146H240.514ZM252.518 6.00146V4.00195H262.515V6.00146H252.518ZM264.521 6.00146V4.00195H274.519V6.00146H264.521ZM276.525 6.00146V4.00195H286.523V6.00146H276.525ZM288.529 6.00146V4.00195H298.527V6.00146H288.529ZM300.533 6.00146V4.00195H310.531V6.00146H300.533ZM312.537 6.00146V4.00195H322.535V6.00146H312.537ZM324.541 6.00146V4.00195H334.539V6.00146H324.541ZM336.545 6.00146V4.00195H346.542V6.00146H336.545ZM348.549 6.00146V4.00195H358.546V6.00146H348.549ZM360.553 6.00146V4.00195H370.55V6.00146H360.553ZM372.557 6.00146V4.00195H382.554V6.00146H372.557ZM388.56 10.0005V6.00146H384.561V4.00195H388.56V0.00292969H390.559V4.00195H394.558V6.00146H390.559V10.0005H388.56ZM2.43506 26.0005V22.0015H6.43408V26.0005H2.43506ZM2.43506 20.002V16.0029H6.43408V20.002H2.43506ZM386.56 26.0005V22.0015H390.559V26.0005H386.56ZM386.56 20.002V16.0029H390.559V20.002H386.56ZM4.43457 44V30H6.43408V44H4.43457ZM388.56 44V30H390.559V44H388.56ZM2.43506 58.0005V54.0015H6.43408V58.0005H2.43506ZM2.43506 52.002V48.0029H6.43408V52.002H2.43506ZM386.56 58.0005V54.0015H390.559V58.0005H386.56ZM386.56 52.002V48.0029H390.559V52.002H386.56ZM4.43457 74.0005V70.0015H0.435547V68.002H4.43457V64.0029H6.43408V68.002H10.4331V70.0015H6.43408V74.0005H4.43457ZM12.4395 70.0015V68.002H22.437V70.0015H12.4395ZM24.4434 70.0015V68.002H34.4409V70.0015H24.4434ZM36.4473 70.0015V68.002H46.4448V70.0015H36.4473ZM48.4512 70.0015V68.002H58.4487V70.0015H48.4512ZM60.4551 70.0015V68.002H70.4526V70.0015H60.4551ZM72.459 70.0015V68.002H82.4565V70.0015H72.459ZM84.4629 70.0015V68.002H94.4604V70.0015H84.4629ZM96.4668 70.0015V68.002H106.464V70.0015H96.4668ZM108.471 70.0015V68.002H118.468V70.0015H108.471ZM120.475 70.0015V68.002H130.472V70.0015H120.475ZM132.479 70.0015V68.002H142.476V70.0015H132.479ZM144.482 70.0015V68.002H154.48V70.0015H144.482ZM156.486 70.0015V68.002H166.484V70.0015H156.486ZM168.49 70.0015V68.002H178.488V70.0015H168.49ZM180.494 70.0015V68.002H190.492V70.0015H180.494ZM192.498 70.0015V68.002H202.496V70.0015H192.498ZM204.502 70.0015V68.002H214.5V70.0015H204.502ZM216.506 70.0015V68.002H226.503V70.0015H216.506ZM228.51 70.0015V68.002H238.507V70.0015H228.51ZM240.514 70.0015V68.002H250.511V70.0015H240.514ZM252.518 70.0015V68.002H262.515V70.0015H252.518ZM264.521 70.0015V68.002H274.519V70.0015H264.521ZM276.525 70.0015V68.002H286.523V70.0015H276.525ZM288.529 70.0015V68.002H298.527V70.0015H288.529ZM300.533 70.0015V68.002H310.531V70.0015H300.533ZM312.537 70.0015V68.002H322.535V70.0015H312.537ZM324.541 70.0015V68.002H334.539V70.0015H324.541ZM336.545 70.0015V68.002H346.542V70.0015H336.545ZM348.549 70.0015V68.002H358.546V70.0015H348.549ZM360.553 70.0015V68.002H370.55V70.0015H360.553ZM372.557 70.0015V68.002H382.554V70.0015H372.557ZM388.56 74.0005V70.0015H384.561V68.002H388.56V64.0029H390.559V68.002H394.558V70.0015H390.559V74.0005H388.56Z" fill="black"/>
</svg>
